#N canvas 189 134 963 457 10;
#X text 97 10 load a square wave;
#X text 98 23 at startup;
#X obj 179 53 cnv 15 180 280 empty empty Thruster 20 12 0 14 -233017
-66577 0;
#X obj 186 124 noise~;
#X obj 203 179 *~;
#X obj 203 207 samphold~;
#X obj 203 263 hip~ 200;
#X obj 269 188 phasor~ 800;
#X obj 240 160 line~;
#X obj 203 235 *~ 0.1;
#X obj 240 87 receive thruster;
#X obj 812 54 cnv 15 140 220 empty empty Missile 20 12 0 14 -233017
-66577 0;
#X obj 661 54 cnv 15 140 220 empty empty Ship_Hit 20 12 0 14 -228856
-66577 0;
#X obj 370 54 cnv 15 280 220 empty empty Asteroid_Hit 20 12 0 14 -233017
-66577 0;
#X obj 564 348 samphold~;
#X obj 836 215 tabosc4~ square;
#X obj 544 425 dac~;
#X obj 836 188 line~;
#X obj 631 330 phasor~ 8000;
#X obj 695 210 tabosc4~ square;
#X obj 695 182 line~;
#X obj 679 107 unpack f f;
#X msg 679 143 0 \$1;
#X obj 398 183 tabosc4~ square;
#X obj 398 163 line~;
#X obj 371 109 unpack f f;
#X msg 371 143 0 \$1;
#X obj 816 112 unpack f f;
#X msg 816 148 0 \$1;
#X obj 371 82 receive asteroid;
#X obj 679 79 receive ship;
#X text 714 335 these sounds;
#X text 444 391 cut low frequencies;
#X obj 13 53 cnv 15 155 280 empty empty Messages 20 12 0 14 -233017
-66577 0;
#X msg 21 248 \; thruster 0;
#X msg 21 207 \; thruster 1;
#N canvas 220 288 361 281 wavesetup 0;
#X obj 12 9 loadbang;
#N canvas 0 22 450 278 (subpatch) 0;
#X array square 1027 float 0;
#X coords 0 1 1026 -1 200 140 1 0 0;
#X restore 12 127 graph;
#X msg 12 37 \; square sinesum 1024 1 0 0.333333 0 0.2 0 0.142857 0
0.111111 0 0.090909 0 0.076923 0 0.066667 0 0.058824 0 0.052632 0 0.047619
0 \; square normalize 1 \;;
#X connect 0 0 2 0;
#X restore 16 14 pd wavesetup;
#X obj 508 73 noise~;
#X obj 445 254 *~ 0.5;
#X obj 522 94 receive asteroid;
#X obj 522 124 unpack f f;
#X obj 508 198 *~;
#X obj 508 225 samphold~;
#X obj 559 202 phasor~ 800;
#X obj 522 174 line~;
#X msg 555 146 0.2;
#X msg 522 146 0 \$1;
#X obj 836 246 *~ 0.3;
#X obj 816 84 receive missile;
#N canvas 193 547 563 297 recorder 0;
#X obj -40 235 writesf~ 1;
#X msg -46 168 start;
#X msg -13 194 stop;
#X obj -91 11 inlet~ signal;
#X obj -1 168 del;
#X obj 89 13 r asteroid;
#X msg 89 168 open asteroid_hit.wav;
#X obj 112 34 r ship;
#X obj 129 58 r missile;
#X msg 112 130 open ship_hit.wav;
#X msg 129 92 open missile.wav;
#X obj 14 85 unpack f f;
#X obj -23 120 t b b f;
#X connect 1 0 0 0;
#X connect 2 0 0 0;
#X connect 3 0 0 0;
#X connect 4 0 2 0;
#X connect 5 0 6 0;
#X connect 5 0 11 0;
#X connect 6 0 0 0;
#X connect 7 0 9 0;
#X connect 7 0 11 0;
#X connect 8 0 10 0;
#X connect 8 0 11 0;
#X connect 9 0 0 0;
#X connect 10 0 0 0;
#X connect 11 0 12 0;
#X connect 12 0 1 0;
#X connect 12 1 4 0;
#X connect 12 2 4 1;
#X restore 583 425 pd recorder;
#X msg 21 84 \; missile 300 400 \;;
#X msg 21 166 \; ship 1000 50 \;;
#X obj 198 293 dac~;
#N canvas 619 418 198 189 thruster_recorder 0;
#X obj -59 36 r thruster;
#X obj -59 62 select 1 0;
#X obj -59 89 t b b;
#X msg 1 135 open thruster.wav;
#X msg -62 118 start;
#X msg 2 108 stop;
#X obj -75 160 writesf~ 1;
#X obj -75 5 inlet~ signal;
#X connect 0 0 1 0;
#X connect 1 0 2 0;
#X connect 1 1 5 0;
#X connect 2 0 4 0;
#X connect 2 1 3 0;
#X connect 3 0 6 0;
#X connect 4 0 6 0;
#X connect 5 0 6 0;
#X connect 7 0 6 0;
#X restore 231 293 pd thruster_recorder;
#X msg 240 124 \$1 10;
#X text 713 322 "8-bit-ify";
#X text 267 205 "8-bit-ify";
#X text 268 218 thruster;
#X msg 21 125 \; asteroid 300 30 \;;
#X obj 565 391 hip~ 500;
#X connect 3 0 4 0;
#X connect 4 0 5 0;
#X connect 5 0 9 0;
#X connect 6 0 52 0;
#X connect 6 0 52 1;
#X connect 6 0 53 0;
#X connect 7 0 5 1;
#X connect 8 0 4 1;
#X connect 9 0 6 0;
#X connect 10 0 54 0;
#X connect 14 0 59 0;
#X connect 15 0 47 0;
#X connect 17 0 15 0;
#X connect 18 0 14 1;
#X connect 19 0 14 0;
#X connect 20 0 19 0;
#X connect 21 0 22 0;
#X connect 21 1 20 0;
#X connect 22 0 20 0;
#X connect 23 0 38 0;
#X connect 24 0 23 0;
#X connect 25 0 26 0;
#X connect 25 1 24 0;
#X connect 26 0 24 0;
#X connect 27 0 28 0;
#X connect 27 1 17 0;
#X connect 28 0 17 0;
#X connect 29 0 25 0;
#X connect 30 0 21 0;
#X connect 37 0 41 0;
#X connect 38 0 14 0;
#X connect 39 0 40 0;
#X connect 40 0 46 0;
#X connect 40 1 45 0;
#X connect 41 0 42 0;
#X connect 42 0 38 0;
#X connect 43 0 42 1;
#X connect 44 0 41 1;
#X connect 45 0 44 0;
#X connect 46 0 44 0;
#X connect 47 0 14 0;
#X connect 48 0 27 0;
#X connect 54 0 8 0;
#X connect 59 0 16 0;
#X connect 59 0 16 1;
#X connect 59 0 49 0;
